<?xml version="1.0" encoding="utf-8"?>
<!-- Generator: Adobe Illustrator 19.2.0, SVG Export Plug-In . SVG Version: 6.00 Build 0)  -->
<svg version="1.1" id="Layer_1" xmlns="http://www.w3.org/2000/svg" xmlns:xlink="http://www.w3.org/1999/xlink" x="0px" y="0px"
	 viewBox="0 0 144 113.3" style="enable-background:new 0 0 144 113.3;" xml:space="preserve">
<style type="text/css">
	.st0{fill:#F39C93;}
</style>
<g>
	<path class="st0" d="M91.7,16.9H41.4c-3.7,0-6.7,3-6.7,6.7v31.9c0,3.7,3,6.7,6.7,6.7h50.3c3.7,0,6.7-3,6.7-6.7V23.6
		C98.4,19.9,95.4,16.9,91.7,16.9z M53.4,40.7c-3.5,0-6.4-2.9-6.4-6.4s2.9-6.4,6.4-6.4s6.4,2.9,6.4,6.4C59.8,37.9,57,40.7,53.4,40.7z
		 M74.8,54.5H58.3v-6h16.5V54.5z M79.7,40.7c-3.5,0-6.4-2.9-6.4-6.4s2.9-6.4,6.4-6.4s6.4,2.9,6.4,6.4C86.1,37.9,83.3,40.7,79.7,40.7
		z"/>
	<rect x="62.4" class="st0" width="8.4" height="12.3"/>
	<rect x="52.4" y="66.8" class="st0" width="28.3" height="6.6"/>
	<rect x="34.8" y="77.8" class="st0" width="63.6" height="35.5"/>
	<rect x="103.5" y="77.8" class="st0" width="6" height="11.5"/>
	<rect x="114.3" y="77.8" class="st0" width="6" height="11.5"/>
	<rect x="125.2" y="77.8" class="st0" width="6" height="11.5"/>
	<rect x="136" y="77.8" class="st0" width="6" height="11.5"/>
	<rect x="2" y="67.1" class="st0" width="10.8" height="6"/>
	<rect x="2" y="56.4" class="st0" width="10.8" height="6"/>
	<rect x="2" y="77.8" class="st0" width="6" height="11.5"/>
	<rect x="12.8" y="77.8" class="st0" width="6" height="11.5"/>
	<rect x="23.7" y="77.8" class="st0" width="6" height="11.5"/>
</g>
</svg>
